# xmcd CD database file
#
# Track frame offsets:
#	150
#	22520
#	45147
#	75655
#	98170
#	115372
#	139180
#	171710
#	194867
#	216795
#
# Disc length: 3176 seconds
#
# Revision: 0
# Processed by: cddbd v1.5.2PL0 Copyright (c) Steve Scherf et al.
# Submitted via: CDex 1.51
#
DISCID=850c660a
DTITLE=Big Joe Turner - Jackson On My Mind
DYEAR=1997
DGENRE=Blues
TTITLE0=Jackson On My Mind
TTITLE1=Evil
TTITLE2=I Am The Blues
TTITLE3=Travelling Man
TTITLE4=Right To Love Your Woman
TTITLE5=Just Ain't Enough
TTITLE6=Some Day
TTITLE7=B.J.
TTITLE8=Target
TTITLE9=Time To Go
EXTD=YEAR: 1997
EXTT0=
EXTT1=
EXTT2=
EXTT3=
EXTT4=
EXTT5=
EXTT6=
EXTT7=
EXTT8=
EXTT9=
PLAYORDER=
